<?xml version="1.0" encoding="utf-8"?>
<!-- Generator: Adobe Illustrator 27.4.0, SVG Export Plug-In . SVG Version: 6.00 Build 0)  -->
<svg version="1.1" id="Layer_1" xmlns="http://www.w3.org/2000/svg" xmlns:xlink="http://www.w3.org/1999/xlink" x="0px" y="0px"
	 viewBox="0 0 851.8 201.2" style="enable-background:new 0 0 851.8 201.2;" xml:space="preserve">
<style type="text/css">
	.st0{display:none;}
</style>
<polygon points="226.9,0 195.5,73.6 187.8,91.6 180.1,73.6 144.2,73.6 169.9,133.7 141.1,201.2 0,201.2 28.8,133.7 28.8,133.7 
	36.5,115.7 44.2,133.7 80.1,133.7 54.5,73.6 85.9,0 "/>
<polygon points="419.9,0 334,201.2 271,201.2 299.8,133.7 267.7,155.9 252.5,133.7 223.6,201.2 163,201.2 248.8,0 310.6,0 325.7,22 
	357.5,0 "/>
<polygon points="530.8,133.8 561.1,133.8 532.2,201.3 439,201.3 524.8,0.2 587.8,0.2 "/>
<polygon points="639.3,133.8 670.2,133.8 641.4,201.3 551.5,201.3 637.4,0.2 696.4,0.2 "/>
<g>
	<g>
		<polygon points="851.8,0.2 765.9,201.3 660.5,201.3 689.4,133.8 714,133.8 687.3,71.2 686.4,69.1 707.1,20.6 715.8,0.3 
			754.2,90.4 792.8,0.2 		"/>
	</g>
</g>
<polygon points="505.7,0 419.8,201.2 356.8,201.2 442.7,0 "/>
<g id="_x30_AMF5X_00000116205217343814419410000017037776288751742908_" class="st0">
	
		<image style="display:inline;overflow:visible;" width="2528" height="706" id="_x30_AMF5X_00000026883993457791157100000003530783544382131374_" xlink:href="5863EE89E1893F4B.jpg"  transform="matrix(0.3973 0 0 0.3973 -59.8917 -42.9386)">
	</image>
</g>
</svg>
